<?xml version="1.0" encoding="utf-8"?>
<!-- Generator: Adobe Illustrator 23.0.3, SVG Export Plug-In . SVG Version: 6.00 Build 0)  -->
<svg version="1.1" id="Layer_1" xmlns="http://www.w3.org/2000/svg" xmlns:xlink="http://www.w3.org/1999/xlink" x="0px" y="0px"
	 viewBox="0 0 443 93" style="enable-background:new 0 0 443 93;" xml:space="preserve">
<style type="text/css">
	.st0{fill:#ED1B24;}
</style>
<g>
	<path class="st0" d="M64.44,44.87l1.9-1.9c4.23-4.23,5.4-6.72,5.4-13.14v-6.28c0-7.15-1.02-9.2-5.26-13.43l-4.09-4.09
		c-3.8-3.8-6.57-4.67-12.7-4.67H9.83c-3.21,0-4.53,1.31-4.53,4.53v81.47c0,3.21,1.31,4.53,4.53,4.53h42.63
		c6.13,0,8.91-0.88,12.7-4.67l4.09-4.09c4.23-4.23,5.26-6.28,5.26-13.43v-6.86c0-7.15-1.02-8.91-5.26-13.14L64.44,44.87z
		 M21.66,15.38h24.97c1.75,0,2.77,0.29,3.8,1.31l3.94,3.94c1.02,1.02,1.31,1.75,1.31,2.92v8.03c0,1.17-0.29,1.9-1.31,2.92
		l-3.65,3.65c-1.02,1.02-2.04,1.31-3.8,1.31H21.66V15.38z M58.3,69.69c0,1.17-0.29,1.9-1.31,2.92l-3.94,3.94
		c-1.02,1.02-2.04,1.31-3.8,1.31H21.66V53.05h27.89c1.75,0,2.77,0.29,3.8,1.31l3.65,3.65c1.02,1.02,1.31,1.75,1.31,2.92V69.69z"/>
	<path class="st0" d="M146.34,8.52c-3.94-6.28-5.84-8.03-14.31-8.03h-7.88c-8.47,0-10.37,1.75-14.31,8.03L95.54,31.59
		c-3.8,5.99-4.38,10.66-4.38,17.52v42.78h16.21V68.67h41.46v23.21h16.21V49.11c0-6.86-0.58-11.53-4.38-17.52L146.34,8.52z
		 M148.82,54.36h-41.46v-5.55c0-4.38,0.73-6.86,2.63-9.93l13.29-21.9c0.73-1.17,1.17-1.31,2.48-1.31h4.67
		c1.31,0,1.75,0.15,2.48,1.31l13.29,21.9c1.9,3.07,2.63,5.55,2.63,9.93V54.36z"/>
	<path class="st0" d="M245.33,66.04L200.22,4c-1.61-2.19-2.19-2.63-4.38-2.63h-9.34c-1.61,0-2.34,0.88-2.34,2.34v88.18h15.18V27.5
		l44.97,61.9c1.31,1.75,2.34,2.48,4.09,2.48h9.78c1.61,0,2.34-0.88,2.34-2.34V1.37h-15.18V66.04z"/>
	<path class="st0" d="M343.15,45.9c4.96-4.96,6.28-7.15,6.28-14.16V1.37h-14.16l-2.34,28.62c-0.15,2.48-0.73,3.5-2.34,5.26
		l-4.96,5.11c-1.02,1.02-2.04,1.31-3.8,1.31h-24.82V1.37h-16.35v90.52h16.35V56.12h27.16l13.43,35.77h17.37l-15.91-41.9L343.15,45.9
		z"/>
	<path class="st0" d="M431.77,46.63c-3.5-3.21-8.47-4.53-17.08-5.69l-22.92-3.07c-5.55-0.73-7.15-2.19-7.15-7.15v-5.69
		c0-1.31,0.29-2.04,1.31-3.07l5.26-5.26c1.02-1.02,2.04-1.31,3.8-1.31h14.45c2.63,0,3.8,0.29,5.84,1.17l12.56,5.4l6.72-11.97
		L424.03,3.7c-4.67-2.77-7.15-3.21-13.58-3.21H392.5c-5.11,0-8.91,0.88-12.99,4.96L373.96,11c-4.23,4.23-5.69,6.72-5.69,14.16v5.4
		c0,7.3,1.46,12.26,4.38,15.62c3.5,4.09,8.76,5.99,16.64,7.01l24.53,3.21c5.4,0.73,6.86,2.19,6.86,6.86v4.96
		c0,1.31-0.29,2.04-1.31,3.07l-5.26,5.26c-1.02,1.02-2.04,1.31-3.8,1.31H392.5c-2.63,0-3.8-0.29-5.84-1.17l-12.56-5.4l-6.72,11.97
		l10.51,6.28c4.67,2.77,7.15,3.21,13.58,3.21h21.31c5.11,0,8.91-0.88,12.99-4.96l5.55-5.55c4.23-4.23,5.69-6.72,5.69-14.16v-5.4
		C437.03,54.66,435.27,49.84,431.77,46.63z"/>
</g>
</svg>